<svg xmlns="http://www.w3.org/2000/svg" version="1.1" xmlns:xlink="http://www.w3.org/1999/xlink" xmlns:svgjs="http://svgjs.dev/svgjs" width="1440" height="560" preserveAspectRatio="none" viewBox="0 0 1440 560"><g mask="url(&quot;#SvgjsMask1006&quot;)" fill="none"><rect width="1440" height="560" x="0" y="0" fill="#0e2a47"></rect><path d="M-95.15 648.89L-95.15 648.89" stroke="#132e65" stroke-width="1.5"></path><path d="M-95.15 648.89L68.5 530.24" stroke="#132e65" stroke-width="1.5"></path><path d="M-95.15 648.89L107.69 654.84" stroke="#132e65" stroke-width="1.5"></path><path d="M46.85 348.36L46.85 348.36" stroke="#132e65" stroke-width="1.5"></path><path d="M46.85 348.36L202.22 363.43" stroke="#132e65" stroke-width="1.5"></path><path d="M46.85 348.36L68.5 530.24" stroke="#132e65" stroke-width="1.5"></path><path d="M46.85 348.36L235.87 521.97" stroke="#132e65" stroke-width="1.5"></path><path d="M68.5 530.24L68.5 530.24" stroke="#132e65" stroke-width="1.5"></path><path d="M68.5 530.24L107.69 654.84" stroke="#132e65" stroke-width="1.5"></path><path d="M68.5 530.24L235.87 521.97" stroke="#132e65" stroke-width="1.5"></path><path d="M107.69 654.84L107.69 654.84" stroke="#132e65" stroke-width="1.5"></path><path d="M107.69 654.84L236.96 661.2" stroke="#132e65" stroke-width="1.5"></path><path d="M107.69 654.84L235.87 521.97" stroke="#132e65" stroke-width="1.5"></path><path d="M202.22 363.43L202.22 363.43" stroke="#132e65" stroke-width="1.5"></path><path d="M202.22 363.43L235.87 521.97" stroke="#132e65" stroke-width="1.5"></path><path d="M202.22 363.43L408.57 343.76" stroke="#132e65" stroke-width="1.5"></path><path d="M235.87 521.97L235.87 521.97" stroke="#132e65" stroke-width="1.5"></path><path d="M235.87 521.97L236.96 661.2" stroke="#132e65" stroke-width="1.5"></path><path d="M235.87 521.97L376.67 552.2" stroke="#132e65" stroke-width="1.5"></path><path d="M235.87 521.97L400.63 689.97" stroke="#132e65" stroke-width="1.5"></path><path d="M236.96 661.2L236.96 661.2" stroke="#132e65" stroke-width="1.5"></path><path d="M236.96 661.2L400.63 689.97" stroke="#132e65" stroke-width="1.5"></path><path d="M408.57 343.76L408.57 343.76" stroke="#132e65" stroke-width="1.5"></path><path d="M408.57 343.76L550.21 367.39" stroke="#132e65" stroke-width="1.5"></path><path d="M408.57 343.76L376.67 552.2" stroke="#132e65" stroke-width="1.5"></path><path d="M376.67 552.2L376.67 552.2" stroke="#132e65" stroke-width="1.5"></path><path d="M376.67 552.2L400.63 689.97" stroke="#132e65" stroke-width="1.5"></path><path d="M376.67 552.2L548.91 538.55" stroke="#132e65" stroke-width="1.5"></path><path d="M376.67 552.2L236.96 661.2" stroke="#132e65" stroke-width="1.5"></path><path d="M376.67 552.2L499.18 687.08" stroke="#132e65" stroke-width="1.5"></path><path d="M400.63 689.97L400.63 689.97" stroke="#132e65" stroke-width="1.5"></path><path d="M400.63 689.97L499.18 687.08" stroke="#132e65" stroke-width="1.5"></path><path d="M550.21 367.39L550.21 367.39" stroke="#132e65" stroke-width="1.5"></path><path d="M550.21 367.39L693.81 407.79" stroke="#132e65" stroke-width="1.5"></path><path d="M550.21 367.39L646.56 488.7" stroke="#132e65" stroke-width="1.5"></path><path d="M550.21 367.39L548.91 538.55" stroke="#132e65" stroke-width="1.5"></path><path d="M550.21 367.39L376.67 552.2" stroke="#132e65" stroke-width="1.5"></path><path d="M548.91 538.55L548.91 538.55" stroke="#132e65" stroke-width="1.5"></path><path d="M548.91 538.55L646.56 488.7" stroke="#132e65" stroke-width="1.5"></path><path d="M548.91 538.55L499.18 687.08" stroke="#132e65" stroke-width="1.5"></path><path d="M499.18 687.08L499.18 687.08" stroke="#132e65" stroke-width="1.5"></path><path d="M499.18 687.08L646.56 488.7" stroke="#132e65" stroke-width="1.5"></path><path d="M499.18 687.08L236.96 661.2" stroke="#132e65" stroke-width="1.5"></path><path d="M499.18 687.08L235.87 521.97" stroke="#132e65" stroke-width="1.5"></path><path d="M693.81 407.79L693.81 407.79" stroke="#132e65" stroke-width="1.5"></path><path d="M693.81 407.79L646.56 488.7" stroke="#132e65" stroke-width="1.5"></path><path d="M693.81 407.79L830.67 404.82" stroke="#132e65" stroke-width="1.5"></path><path d="M693.81 407.79L801.83 521.47" stroke="#132e65" stroke-width="1.5"></path><path d="M693.81 407.79L548.91 538.55" stroke="#132e65" stroke-width="1.5"></path><path d="M693.81 407.79L792.28 215.19" stroke="#132e65" stroke-width="1.5"></path><path d="M646.56 488.7L646.56 488.7" stroke="#132e65" stroke-width="1.5"></path><path d="M792.28 215.19L792.28 215.19" stroke="#132e65" stroke-width="1.5"></path><path d="M792.28 215.19L958.51 200.69" stroke="#132e65" stroke-width="1.5"></path><path d="M792.28 215.19L830.67 404.82" stroke="#132e65" stroke-width="1.5"></path><path d="M792.28 215.19L953.81 65.36" stroke="#132e65" stroke-width="1.5"></path><path d="M792.28 215.19L991.42 400.51" stroke="#132e65" stroke-width="1.5"></path><path d="M792.28 215.19L550.21 367.39" stroke="#132e65" stroke-width="1.5"></path><path d="M830.67 404.82L830.67 404.82" stroke="#132e65" stroke-width="1.5"></path><path d="M830.67 404.82L801.83 521.47" stroke="#132e65" stroke-width="1.5"></path><path d="M830.67 404.82L991.42 400.51" stroke="#132e65" stroke-width="1.5"></path><path d="M801.83 521.47L801.83 521.47" stroke="#132e65" stroke-width="1.5"></path><path d="M801.83 521.47L844 643.25" stroke="#132e65" stroke-width="1.5"></path><path d="M844 643.25L844 643.25" stroke="#132e65" stroke-width="1.5"></path><path d="M844 643.25L966.72 670.78" stroke="#132e65" stroke-width="1.5"></path><path d="M844 643.25L976.78 531.59" stroke="#132e65" stroke-width="1.5"></path><path d="M844 643.25L830.67 404.82" stroke="#132e65" stroke-width="1.5"></path><path d="M844 643.25L646.56 488.7" stroke="#132e65" stroke-width="1.5"></path><path d="M844 643.25L693.81 407.79" stroke="#132e65" stroke-width="1.5"></path><path d="M953.81 65.36L953.81 65.36" stroke="#132e65" stroke-width="1.5"></path><path d="M953.81 65.36L958.51 200.69" stroke="#132e65" stroke-width="1.5"></path><path d="M953.81 65.36L1098.82 37.74" stroke="#132e65" stroke-width="1.5"></path><path d="M953.81 65.36L1099.82 200.38" stroke="#132e65" stroke-width="1.5"></path><path d="M953.81 65.36L991.42 400.51" stroke="#132e65" stroke-width="1.5"></path><path d="M953.81 65.36L1262.15 -78.62" stroke="#132e65" stroke-width="1.5"></path><path d="M958.51 200.69L958.51 200.69" stroke="#132e65" stroke-width="1.5"></path><path d="M958.51 200.69L1099.82 200.38" stroke="#132e65" stroke-width="1.5"></path><path d="M958.51 200.69L991.42 400.51" stroke="#132e65" stroke-width="1.5"></path><path d="M991.42 400.51L991.42 400.51" stroke="#132e65" stroke-width="1.5"></path><path d="M991.42 400.51L976.78 531.59" stroke="#132e65" stroke-width="1.5"></path><path d="M976.78 531.59L976.78 531.59" stroke="#132e65" stroke-width="1.5"></path><path d="M976.78 531.59L966.72 670.78" stroke="#132e65" stroke-width="1.5"></path><path d="M976.78 531.59L1125.81 542.79" stroke="#132e65" stroke-width="1.5"></path><path d="M976.78 531.59L801.83 521.47" stroke="#132e65" stroke-width="1.5"></path><path d="M966.72 670.78L966.72 670.78" stroke="#132e65" stroke-width="1.5"></path><path d="M966.72 670.78L1153.35 645.22" stroke="#132e65" stroke-width="1.5"></path><path d="M966.72 670.78L1125.81 542.79" stroke="#132e65" stroke-width="1.5"></path><path d="M966.72 670.78L801.83 521.47" stroke="#132e65" stroke-width="1.5"></path><path d="M1098.82 37.74L1098.82 37.74" stroke="#132e65" stroke-width="1.5"></path><path d="M1098.82 37.74L1099.82 200.38" stroke="#132e65" stroke-width="1.5"></path><path d="M1098.82 37.74L1262.15 -78.62" stroke="#132e65" stroke-width="1.5"></path><path d="M1099.82 200.38L1099.82 200.38" stroke="#132e65" stroke-width="1.5"></path><path d="M1099.82 200.38L1246.24 257.11" stroke="#132e65" stroke-width="1.5"></path><path d="M1144.76 381.96L1144.76 381.96" stroke="#132e65" stroke-width="1.5"></path><path d="M1144.76 381.96L1293.97 355.47" stroke="#132e65" stroke-width="1.5"></path><path d="M1144.76 381.96L991.42 400.51" stroke="#132e65" stroke-width="1.5"></path><path d="M1144.76 381.96L1246.24 257.11" stroke="#132e65" stroke-width="1.5"></path><path d="M1144.76 381.96L1125.81 542.79" stroke="#132e65" stroke-width="1.5"></path><path d="M1144.76 381.96L1099.82 200.38" stroke="#132e65" stroke-width="1.5"></path><path d="M1125.81 542.79L1125.81 542.79" stroke="#132e65" stroke-width="1.5"></path><path d="M1125.81 542.79L1153.35 645.22" stroke="#132e65" stroke-width="1.5"></path><path d="M1125.81 542.79L1281.94 556.99" stroke="#132e65" stroke-width="1.5"></path><path d="M1153.35 645.22L1153.35 645.22" stroke="#132e65" stroke-width="1.5"></path><path d="M1153.35 645.22L1251.78 699.67" stroke="#132e65" stroke-width="1.5"></path><path d="M1153.35 645.22L1281.94 556.99" stroke="#132e65" stroke-width="1.5"></path><path d="M1262.15 -78.62L1262.15 -78.62" stroke="#132e65" stroke-width="1.5"></path><path d="M1262.15 -78.62L1305.82 91.77" stroke="#132e65" stroke-width="1.5"></path><path d="M1262.15 -78.62L1452.84 -102.58" stroke="#132e65" stroke-width="1.5"></path><path d="M1262.15 -78.62L1401.89 58.49" stroke="#132e65" stroke-width="1.5"></path><path d="M1305.82 91.77L1305.82 91.77" stroke="#132e65" stroke-width="1.5"></path><path d="M1305.82 91.77L1401.89 58.49" stroke="#132e65" stroke-width="1.5"></path><path d="M1305.82 91.77L1246.24 257.11" stroke="#132e65" stroke-width="1.5"></path><path d="M1246.24 257.11L1246.24 257.11" stroke="#132e65" stroke-width="1.5"></path><path d="M1246.24 257.11L1293.97 355.47" stroke="#132e65" stroke-width="1.5"></path><path d="M1246.24 257.11L1397.59 241.67" stroke="#132e65" stroke-width="1.5"></path><path d="M1293.97 355.47L1293.97 355.47" stroke="#132e65" stroke-width="1.5"></path><path d="M1293.97 355.47L1443.5 376.86" stroke="#132e65" stroke-width="1.5"></path><path d="M1293.97 355.47L1397.59 241.67" stroke="#132e65" stroke-width="1.5"></path><path d="M1293.97 355.47L1281.94 556.99" stroke="#132e65" stroke-width="1.5"></path><path d="M1293.97 355.47L1444.6 523.21" stroke="#132e65" stroke-width="1.5"></path><path d="M1281.94 556.99L1281.94 556.99" stroke="#132e65" stroke-width="1.5"></path><path d="M1281.94 556.99L1251.78 699.67" stroke="#132e65" stroke-width="1.5"></path><path d="M1251.78 699.67L1251.78 699.67" stroke="#132e65" stroke-width="1.5"></path><path d="M1251.78 699.67L1125.81 542.79" stroke="#132e65" stroke-width="1.5"></path><path d="M1251.78 699.67L1455.79 694.18" stroke="#132e65" stroke-width="1.5"></path><path d="M1251.78 699.67L1444.6 523.21" stroke="#132e65" stroke-width="1.5"></path><path d="M1452.84 -102.58L1452.84 -102.58" stroke="#132e65" stroke-width="1.5"></path><path d="M1452.84 -102.58L1401.89 58.49" stroke="#132e65" stroke-width="1.5"></path><path d="M1452.84 -102.58L1556.78 91.02" stroke="#132e65" stroke-width="1.5"></path><path d="M1452.84 -102.58L1305.82 91.77" stroke="#132e65" stroke-width="1.5"></path><path d="M1452.84 -102.58L1397.59 241.67" stroke="#132e65" stroke-width="1.5"></path><path d="M1401.89 58.49L1401.89 58.49" stroke="#132e65" stroke-width="1.5"></path><path d="M1401.89 58.49L1556.78 91.02" stroke="#132e65" stroke-width="1.5"></path><path d="M1401.89 58.49L1397.59 241.67" stroke="#132e65" stroke-width="1.5"></path><path d="M1397.59 241.67L1397.59 241.67" stroke="#132e65" stroke-width="1.5"></path><path d="M1397.59 241.67L1443.5 376.86" stroke="#132e65" stroke-width="1.5"></path><path d="M1397.59 241.67L1305.82 91.77" stroke="#132e65" stroke-width="1.5"></path><path d="M1443.5 376.86L1443.5 376.86" stroke="#132e65" stroke-width="1.5"></path><path d="M1443.5 376.86L1444.6 523.21" stroke="#132e65" stroke-width="1.5"></path><path d="M1444.6 523.21L1444.6 523.21" stroke="#132e65" stroke-width="1.5"></path><path d="M1444.6 523.21L1281.94 556.99" stroke="#132e65" stroke-width="1.5"></path><path d="M1444.6 523.21L1455.79 694.18" stroke="#132e65" stroke-width="1.5"></path><path d="M1444.6 523.21L1585.98 643.08" stroke="#132e65" stroke-width="1.5"></path><path d="M1455.79 694.18L1455.79 694.18" stroke="#132e65" stroke-width="1.5"></path><path d="M1455.79 694.18L1585.98 643.08" stroke="#132e65" stroke-width="1.5"></path><path d="M1556.78 91.02L1556.78 91.02" stroke="#132e65" stroke-width="1.5"></path><path d="M1556.78 91.02L1397.59 241.67" stroke="#132e65" stroke-width="1.5"></path><path d="M1556.78 91.02L1305.82 91.77" stroke="#132e65" stroke-width="1.5"></path><path d="M1606.92 401.1L1606.92 401.1" stroke="#132e65" stroke-width="1.5"></path><path d="M1606.92 401.1L1443.5 376.86" stroke="#132e65" stroke-width="1.5"></path><path d="M1606.92 401.1L1444.6 523.21" stroke="#132e65" stroke-width="1.5"></path><path d="M1606.92 401.1L1585.98 643.08" stroke="#132e65" stroke-width="1.5"></path><path d="M1606.92 401.1L1397.59 241.67" stroke="#132e65" stroke-width="1.5"></path><path d="M1606.92 401.1L1556.78 91.02" stroke="#132e65" stroke-width="1.5"></path><path d="M1585.98 643.08L1585.98 643.08" stroke="#132e65" stroke-width="1.5"></path><path d="M1585.98 643.08L1443.5 376.86" stroke="#132e65" stroke-width="1.5"></path><path d="M1585.98 643.08L1281.94 556.99" stroke="#132e65" stroke-width="1.5"></path><path d="M1585.98 643.08L1251.78 699.67" stroke="#132e65" stroke-width="1.5"></path><circle r="5" cx="-95.15" cy="648.89" fill="#132e65"></circle><circle r="5" cx="46.85" cy="348.36" fill="#132e65"></circle><circle r="5" cx="68.5" cy="530.24" fill="#132e65"></circle><circle r="5" cx="107.69" cy="654.84" fill="#132e65"></circle><circle r="5" cx="202.22" cy="363.43" fill="#132e65"></circle><circle r="5" cx="235.87" cy="521.97" fill="#132e65"></circle><circle r="5" cx="236.96" cy="661.2" fill="#132e65"></circle><circle r="5" cx="408.57" cy="343.76" fill="#132e65"></circle><circle r="5" cx="376.67" cy="552.2" fill="#132e65"></circle><circle r="5" cx="400.63" cy="689.97" fill="#132e65"></circle><circle r="5" cx="550.21" cy="367.39" fill="#132e65"></circle><circle r="5" cx="548.91" cy="538.55" fill="#132e65"></circle><circle r="5" cx="499.18" cy="687.08" fill="#132e65"></circle><circle r="5" cx="693.81" cy="407.79" fill="#132e65"></circle><circle r="5" cx="646.56" cy="488.7" fill="#132e65"></circle><circle r="5" cx="792.28" cy="215.19" fill="#132e65"></circle><circle r="5" cx="830.67" cy="404.82" fill="#132e65"></circle><circle r="5" cx="801.83" cy="521.47" fill="#132e65"></circle><circle r="5" cx="844" cy="643.25" fill="#132e65"></circle><circle r="5" cx="953.81" cy="65.36" fill="#132e65"></circle><circle r="5" cx="958.51" cy="200.69" fill="#132e65"></circle><circle r="5" cx="991.42" cy="400.51" fill="#132e65"></circle><circle r="5" cx="976.78" cy="531.59" fill="#132e65"></circle><circle r="5" cx="966.72" cy="670.78" fill="#132e65"></circle><circle r="5" cx="1098.82" cy="37.74" fill="#132e65"></circle><circle r="5" cx="1099.82" cy="200.38" fill="#132e65"></circle><circle r="5" cx="1144.76" cy="381.96" fill="#132e65"></circle><circle r="5" cx="1125.81" cy="542.79" fill="#132e65"></circle><circle r="5" cx="1153.35" cy="645.22" fill="#132e65"></circle><circle r="5" cx="1262.15" cy="-78.62" fill="#132e65"></circle><circle r="5" cx="1305.82" cy="91.77" fill="#132e65"></circle><circle r="5" cx="1246.24" cy="257.11" fill="#132e65"></circle><circle r="5" cx="1293.97" cy="355.47" fill="#132e65"></circle><circle r="5" cx="1281.94" cy="556.99" fill="#132e65"></circle><circle r="5" cx="1251.78" cy="699.67" fill="#132e65"></circle><circle r="5" cx="1452.84" cy="-102.58" fill="#132e65"></circle><circle r="5" cx="1401.89" cy="58.49" fill="#132e65"></circle><circle r="5" cx="1397.59" cy="241.67" fill="#132e65"></circle><circle r="5" cx="1443.5" cy="376.86" fill="#132e65"></circle><circle r="5" cx="1444.6" cy="523.21" fill="#132e65"></circle><circle r="5" cx="1455.79" cy="694.18" fill="#132e65"></circle><circle r="5" cx="1556.78" cy="91.02" fill="#132e65"></circle><circle r="5" cx="1606.92" cy="401.1" fill="#132e65"></circle><circle r="5" cx="1585.98" cy="643.08" fill="#132e65"></circle><path d="M392.77 683.61L392.77 683.61" stroke="hsl(228.5, 77.2%, 51.5%)" stroke-width="1.5"></path><path d="M392.77 683.61L544.87 658.19" stroke="hsl(228.5, 77.2%, 51.5%)" stroke-width="1.5"></path><path d="M392.77 683.61L487.97 558.93" stroke="hsl(228.5, 77.2%, 51.5%)" stroke-width="1.5"></path><path d="M392.77 683.61L400.14 503" stroke="hsl(228.5, 77.2%, 51.5%)" stroke-width="1.5"></path><path d="M392.77 683.61L201.89 706.26" stroke="hsl(228.5, 77.2%, 51.5%)" stroke-width="1.5"></path><path d="M392.77 683.61L197.46 506.59" stroke="hsl(228.5, 77.2%, 51.5%)" stroke-width="1.5"></path><path d="M392.77 683.61L689.79 672.23" stroke="hsl(228.5, 77.2%, 51.5%)" stroke-width="1.5"></path><path d="M824.71 408.35L824.71 408.35" stroke="hsl(228.5, 77.2%, 51.5%)" stroke-width="1.5"></path><path d="M824.71 408.35L828.19 553.44" stroke="hsl(228.5, 77.2%, 51.5%)" stroke-width="1.5"></path><path d="M824.71 408.35L1007.82 390.4" stroke="hsl(228.5, 77.2%, 51.5%)" stroke-width="1.5"></path><path d="M824.71 408.35L996.96 507.03" stroke="hsl(228.5, 77.2%, 51.5%)" stroke-width="1.5"></path><path d="M824.71 408.35L788.54 655.4" stroke="hsl(228.5, 77.2%, 51.5%)" stroke-width="1.5"></path><path d="M824.71 408.35L689.79 672.23" stroke="hsl(228.5, 77.2%, 51.5%)" stroke-width="1.5"></path><path d="M824.71 408.35L996.32 663.28" stroke="hsl(228.5, 77.2%, 51.5%)" stroke-width="1.5"></path><path d="M1425.6 201.82L1425.6 201.82" stroke="hsl(228.5, 77.2%, 51.5%)" stroke-width="1.5"></path><path d="M1425.6 201.82L1542.42 211.62" stroke="hsl(228.5, 77.2%, 51.5%)" stroke-width="1.5"></path><path d="M1425.6 201.82L1289.26 215.64" stroke="hsl(228.5, 77.2%, 51.5%)" stroke-width="1.5"></path><path d="M1547.43 -60.6L1547.43 -60.6" stroke="hsl(228.5, 77.2%, 51.5%)" stroke-width="1.5"></path><path d="M1547.43 -60.6L1606.41 66.23" stroke="hsl(228.5, 77.2%, 51.5%)" stroke-width="1.5"></path><path d="M1547.43 -60.6L1396.56 -108.77" stroke="hsl(228.5, 77.2%, 51.5%)" stroke-width="1.5"></path><path d="M1547.43 -60.6L1423.7 63.29" stroke="hsl(228.5, 77.2%, 51.5%)" stroke-width="1.5"></path><path d="M1547.43 -60.6L1306.2 -96.94" stroke="hsl(228.5, 77.2%, 51.5%)" stroke-width="1.5"></path><path d="M1547.43 -60.6L1542.42 211.62" stroke="hsl(228.5, 77.2%, 51.5%)" stroke-width="1.5"></path><path d="M1547.43 -60.6L1287.78 46.44" stroke="hsl(228.5, 77.2%, 51.5%)" stroke-width="1.5"></path><path d="M1570.5 492.82L1570.5 492.82" stroke="hsl(228.5, 77.2%, 51.5%)" stroke-width="1.5"></path><path d="M1570.5 492.82L1444.29 524.5" stroke="hsl(228.5, 77.2%, 51.5%)" stroke-width="1.5"></path><path d="M1570.5 492.82L1542.11 341.01" stroke="hsl(228.5, 77.2%, 51.5%)" stroke-width="1.5"></path><path d="M1570.5 492.82L1414.32 385.45" stroke="hsl(228.5, 77.2%, 51.5%)" stroke-width="1.5"></path><path d="M1570.5 492.82L1549.01 686.34" stroke="hsl(228.5, 77.2%, 51.5%)" stroke-width="1.5"></path><path d="M-108.03 561.45L-108.03 561.45" stroke="hsl(228.5, 77.2%, 51.5%)" stroke-width="1.5"></path><path d="M-108.03 561.45L40.52 529.09" stroke="hsl(228.5, 77.2%, 51.5%)" stroke-width="1.5"></path><path d="M-108.03 561.45L-50.4 708.47" stroke="hsl(228.5, 77.2%, 51.5%)" stroke-width="1.5"></path><path d="M-50.4 708.47L-50.4 708.47" stroke="hsl(228.5, 77.2%, 51.5%)" stroke-width="1.5"></path><path d="M-50.4 708.47L48.59 685.1" stroke="hsl(228.5, 77.2%, 51.5%)" stroke-width="1.5"></path><path d="M-50.4 708.47L40.52 529.09" stroke="hsl(228.5, 77.2%, 51.5%)" stroke-width="1.5"></path><path d="M-50.4 708.47L201.89 706.26" stroke="hsl(228.5, 77.2%, 51.5%)" stroke-width="1.5"></path><path d="M-50.4 708.47L197.46 506.59" stroke="hsl(228.5, 77.2%, 51.5%)" stroke-width="1.5"></path><path d="M40.52 529.09L40.52 529.09" stroke="hsl(228.5, 77.2%, 51.5%)" stroke-width="1.5"></path><path d="M40.52 529.09L48.59 685.1" stroke="hsl(228.5, 77.2%, 51.5%)" stroke-width="1.5"></path><path d="M40.52 529.09L197.46 506.59" stroke="hsl(228.5, 77.2%, 51.5%)" stroke-width="1.5"></path><path d="M48.59 685.1L48.59 685.1" stroke="hsl(228.5, 77.2%, 51.5%)" stroke-width="1.5"></path><path d="M48.59 685.1L201.89 706.26" stroke="hsl(228.5, 77.2%, 51.5%)" stroke-width="1.5"></path><path d="M197.46 506.59L197.46 506.59" stroke="hsl(228.5, 77.2%, 51.5%)" stroke-width="1.5"></path><path d="M197.46 506.59L201.89 706.26" stroke="hsl(228.5, 77.2%, 51.5%)" stroke-width="1.5"></path><path d="M197.46 506.59L400.14 503" stroke="hsl(228.5, 77.2%, 51.5%)" stroke-width="1.5"></path><path d="M201.89 706.26L201.89 706.26" stroke="hsl(228.5, 77.2%, 51.5%)" stroke-width="1.5"></path><path d="M201.89 706.26L40.52 529.09" stroke="hsl(228.5, 77.2%, 51.5%)" stroke-width="1.5"></path><path d="M400.14 503L400.14 503" stroke="hsl(228.5, 77.2%, 51.5%)" stroke-width="1.5"></path><path d="M400.14 503L487.97 558.93" stroke="hsl(228.5, 77.2%, 51.5%)" stroke-width="1.5"></path><path d="M487.97 558.93L487.97 558.93" stroke="hsl(228.5, 77.2%, 51.5%)" stroke-width="1.5"></path><path d="M487.97 558.93L544.87 658.19" stroke="hsl(228.5, 77.2%, 51.5%)" stroke-width="1.5"></path><path d="M487.97 558.93L689.79 672.23" stroke="hsl(228.5, 77.2%, 51.5%)" stroke-width="1.5"></path><path d="M487.97 558.93L197.46 506.59" stroke="hsl(228.5, 77.2%, 51.5%)" stroke-width="1.5"></path><path d="M487.97 558.93L788.54 655.4" stroke="hsl(228.5, 77.2%, 51.5%)" stroke-width="1.5"></path><path d="M544.87 658.19L544.87 658.19" stroke="hsl(228.5, 77.2%, 51.5%)" stroke-width="1.5"></path><path d="M544.87 658.19L689.79 672.23" stroke="hsl(228.5, 77.2%, 51.5%)" stroke-width="1.5"></path><path d="M544.87 658.19L400.14 503" stroke="hsl(228.5, 77.2%, 51.5%)" stroke-width="1.5"></path><path d="M544.87 658.19L788.54 655.4" stroke="hsl(228.5, 77.2%, 51.5%)" stroke-width="1.5"></path><path d="M689.79 672.23L689.79 672.23" stroke="hsl(228.5, 77.2%, 51.5%)" stroke-width="1.5"></path><path d="M689.79 672.23L788.54 655.4" stroke="hsl(228.5, 77.2%, 51.5%)" stroke-width="1.5"></path><path d="M689.79 672.23L828.19 553.44" stroke="hsl(228.5, 77.2%, 51.5%)" stroke-width="1.5"></path><path d="M828.19 553.44L828.19 553.44" stroke="hsl(228.5, 77.2%, 51.5%)" stroke-width="1.5"></path><path d="M828.19 553.44L788.54 655.4" stroke="hsl(228.5, 77.2%, 51.5%)" stroke-width="1.5"></path><path d="M788.54 655.4L788.54 655.4" stroke="hsl(228.5, 77.2%, 51.5%)" stroke-width="1.5"></path><path d="M788.54 655.4L996.32 663.28" stroke="hsl(228.5, 77.2%, 51.5%)" stroke-width="1.5"></path><path d="M1007.82 390.4L1007.82 390.4" stroke="hsl(228.5, 77.2%, 51.5%)" stroke-width="1.5"></path><path d="M1007.82 390.4L996.96 507.03" stroke="hsl(228.5, 77.2%, 51.5%)" stroke-width="1.5"></path><path d="M1007.82 390.4L1132.67 351.83" stroke="hsl(228.5, 77.2%, 51.5%)" stroke-width="1.5"></path><path d="M1007.82 390.4L1113.31 261.24" stroke="hsl(228.5, 77.2%, 51.5%)" stroke-width="1.5"></path><path d="M1007.82 390.4L1139 520.77" stroke="hsl(228.5, 77.2%, 51.5%)" stroke-width="1.5"></path><path d="M1007.82 390.4L828.19 553.44" stroke="hsl(228.5, 77.2%, 51.5%)" stroke-width="1.5"></path><path d="M996.96 507.03L996.96 507.03" stroke="hsl(228.5, 77.2%, 51.5%)" stroke-width="1.5"></path><path d="M996.96 507.03L1139 520.77" stroke="hsl(228.5, 77.2%, 51.5%)" stroke-width="1.5"></path><path d="M996.96 507.03L996.32 663.28" stroke="hsl(228.5, 77.2%, 51.5%)" stroke-width="1.5"></path><path d="M996.96 507.03L828.19 553.44" stroke="hsl(228.5, 77.2%, 51.5%)" stroke-width="1.5"></path><path d="M996.96 507.03L1132.67 351.83" stroke="hsl(228.5, 77.2%, 51.5%)" stroke-width="1.5"></path><path d="M996.32 663.28L996.32 663.28" stroke="hsl(228.5, 77.2%, 51.5%)" stroke-width="1.5"></path><path d="M996.32 663.28L1132.25 711.06" stroke="hsl(228.5, 77.2%, 51.5%)" stroke-width="1.5"></path><path d="M996.32 663.28L828.19 553.44" stroke="hsl(228.5, 77.2%, 51.5%)" stroke-width="1.5"></path><path d="M996.32 663.28L1139 520.77" stroke="hsl(228.5, 77.2%, 51.5%)" stroke-width="1.5"></path><path d="M996.32 663.28L1007.82 390.4" stroke="hsl(228.5, 77.2%, 51.5%)" stroke-width="1.5"></path><path d="M1113.31 261.24L1113.31 261.24" stroke="hsl(228.5, 77.2%, 51.5%)" stroke-width="1.5"></path><path d="M1113.31 261.24L1132.67 351.83" stroke="hsl(228.5, 77.2%, 51.5%)" stroke-width="1.5"></path><path d="M1132.67 351.83L1132.67 351.83" stroke="hsl(228.5, 77.2%, 51.5%)" stroke-width="1.5"></path><path d="M1132.67 351.83L1252.87 360.62" stroke="hsl(228.5, 77.2%, 51.5%)" stroke-width="1.5"></path><path d="M1132.67 351.83L1139 520.77" stroke="hsl(228.5, 77.2%, 51.5%)" stroke-width="1.5"></path><path d="M1139 520.77L1139 520.77" stroke="hsl(228.5, 77.2%, 51.5%)" stroke-width="1.5"></path><path d="M1139 520.77L1294.7 550.2" stroke="hsl(228.5, 77.2%, 51.5%)" stroke-width="1.5"></path><path d="M1139 520.77L1132.25 711.06" stroke="hsl(228.5, 77.2%, 51.5%)" stroke-width="1.5"></path><path d="M1132.25 711.06L1132.25 711.06" stroke="hsl(228.5, 77.2%, 51.5%)" stroke-width="1.5"></path><path d="M1132.25 711.06L1282.22 712.41" stroke="hsl(228.5, 77.2%, 51.5%)" stroke-width="1.5"></path><path d="M1132.25 711.06L1294.7 550.2" stroke="hsl(228.5, 77.2%, 51.5%)" stroke-width="1.5"></path><path d="M1132.25 711.06L996.96 507.03" stroke="hsl(228.5, 77.2%, 51.5%)" stroke-width="1.5"></path><path d="M1306.2 -96.94L1306.2 -96.94" stroke="hsl(228.5, 77.2%, 51.5%)" stroke-width="1.5"></path><path d="M1306.2 -96.94L1396.56 -108.77" stroke="hsl(228.5, 77.2%, 51.5%)" stroke-width="1.5"></path><path d="M1306.2 -96.94L1287.78 46.44" stroke="hsl(228.5, 77.2%, 51.5%)" stroke-width="1.5"></path><path d="M1287.78 46.44L1287.78 46.44" stroke="hsl(228.5, 77.2%, 51.5%)" stroke-width="1.5"></path><path d="M1287.78 46.44L1423.7 63.29" stroke="hsl(228.5, 77.2%, 51.5%)" stroke-width="1.5"></path><path d="M1289.26 215.64L1289.26 215.64" stroke="hsl(228.5, 77.2%, 51.5%)" stroke-width="1.5"></path><path d="M1289.26 215.64L1252.87 360.62" stroke="hsl(228.5, 77.2%, 51.5%)" stroke-width="1.5"></path><path d="M1289.26 215.64L1287.78 46.44" stroke="hsl(228.5, 77.2%, 51.5%)" stroke-width="1.5"></path><path d="M1252.87 360.62L1252.87 360.62" stroke="hsl(228.5, 77.2%, 51.5%)" stroke-width="1.5"></path><path d="M1252.87 360.62L1414.32 385.45" stroke="hsl(228.5, 77.2%, 51.5%)" stroke-width="1.5"></path><path d="M1252.87 360.62L1113.31 261.24" stroke="hsl(228.5, 77.2%, 51.5%)" stroke-width="1.5"></path><path d="M1294.7 550.2L1294.7 550.2" stroke="hsl(228.5, 77.2%, 51.5%)" stroke-width="1.5"></path><path d="M1294.7 550.2L1411.33 641.32" stroke="hsl(228.5, 77.2%, 51.5%)" stroke-width="1.5"></path><path d="M1294.7 550.2L1444.29 524.5" stroke="hsl(228.5, 77.2%, 51.5%)" stroke-width="1.5"></path><path d="M1294.7 550.2L1282.22 712.41" stroke="hsl(228.5, 77.2%, 51.5%)" stroke-width="1.5"></path><path d="M1282.22 712.41L1282.22 712.41" stroke="hsl(228.5, 77.2%, 51.5%)" stroke-width="1.5"></path><path d="M1282.22 712.41L1411.33 641.32" stroke="hsl(228.5, 77.2%, 51.5%)" stroke-width="1.5"></path><path d="M1282.22 712.41L1139 520.77" stroke="hsl(228.5, 77.2%, 51.5%)" stroke-width="1.5"></path><path d="M1282.22 712.41L1444.29 524.5" stroke="hsl(228.5, 77.2%, 51.5%)" stroke-width="1.5"></path><path d="M1282.22 712.41L1549.01 686.34" stroke="hsl(228.5, 77.2%, 51.5%)" stroke-width="1.5"></path><path d="M1396.56 -108.77L1396.56 -108.77" stroke="hsl(228.5, 77.2%, 51.5%)" stroke-width="1.5"></path><path d="M1423.7 63.29L1423.7 63.29" stroke="hsl(228.5, 77.2%, 51.5%)" stroke-width="1.5"></path><path d="M1423.7 63.29L1425.6 201.82" stroke="hsl(228.5, 77.2%, 51.5%)" stroke-width="1.5"></path><path d="M1423.7 63.29L1396.56 -108.77" stroke="hsl(228.5, 77.2%, 51.5%)" stroke-width="1.5"></path><path d="M1414.32 385.45L1414.32 385.45" stroke="hsl(228.5, 77.2%, 51.5%)" stroke-width="1.5"></path><path d="M1414.32 385.45L1542.11 341.01" stroke="hsl(228.5, 77.2%, 51.5%)" stroke-width="1.5"></path><path d="M1414.32 385.45L1444.29 524.5" stroke="hsl(228.5, 77.2%, 51.5%)" stroke-width="1.5"></path><path d="M1414.32 385.45L1425.6 201.82" stroke="hsl(228.5, 77.2%, 51.5%)" stroke-width="1.5"></path><path d="M1444.29 524.5L1444.29 524.5" stroke="hsl(228.5, 77.2%, 51.5%)" stroke-width="1.5"></path><path d="M1444.29 524.5L1411.33 641.32" stroke="hsl(228.5, 77.2%, 51.5%)" stroke-width="1.5"></path><path d="M1444.29 524.5L1549.01 686.34" stroke="hsl(228.5, 77.2%, 51.5%)" stroke-width="1.5"></path><path d="M1444.29 524.5L1542.11 341.01" stroke="hsl(228.5, 77.2%, 51.5%)" stroke-width="1.5"></path><path d="M1411.33 641.32L1411.33 641.32" stroke="hsl(228.5, 77.2%, 51.5%)" stroke-width="1.5"></path><path d="M1411.33 641.32L1549.01 686.34" stroke="hsl(228.5, 77.2%, 51.5%)" stroke-width="1.5"></path><path d="M1606.41 66.23L1606.41 66.23" stroke="hsl(228.5, 77.2%, 51.5%)" stroke-width="1.5"></path><path d="M1606.41 66.23L1542.42 211.62" stroke="hsl(228.5, 77.2%, 51.5%)" stroke-width="1.5"></path><path d="M1606.41 66.23L1423.7 63.29" stroke="hsl(228.5, 77.2%, 51.5%)" stroke-width="1.5"></path><path d="M1606.41 66.23L1425.6 201.82" stroke="hsl(228.5, 77.2%, 51.5%)" stroke-width="1.5"></path><path d="M1606.41 66.23L1396.56 -108.77" stroke="hsl(228.5, 77.2%, 51.5%)" stroke-width="1.5"></path><path d="M1606.41 66.23L1542.11 341.01" stroke="hsl(228.5, 77.2%, 51.5%)" stroke-width="1.5"></path><path d="M1542.42 211.62L1542.42 211.62" stroke="hsl(228.5, 77.2%, 51.5%)" stroke-width="1.5"></path><path d="M1542.42 211.62L1542.11 341.01" stroke="hsl(228.5, 77.2%, 51.5%)" stroke-width="1.5"></path><path d="M1542.11 341.01L1542.11 341.01" stroke="hsl(228.5, 77.2%, 51.5%)" stroke-width="1.5"></path><path d="M1542.11 341.01L1425.6 201.82" stroke="hsl(228.5, 77.2%, 51.5%)" stroke-width="1.5"></path><path d="M1549.01 686.34L1549.01 686.34" stroke="hsl(228.5, 77.2%, 51.5%)" stroke-width="1.5"></path><circle r="25" cx="392.77" cy="683.61" fill="url(&quot;#SvgjsRadialGradient1007&quot;)"></circle><circle r="25" cx="824.71" cy="408.35" fill="url(&quot;#SvgjsRadialGradient1007&quot;)"></circle><circle r="25" cx="1425.6" cy="201.82" fill="url(&quot;#SvgjsRadialGradient1007&quot;)"></circle><circle r="25" cx="1547.43" cy="-60.6" fill="url(&quot;#SvgjsRadialGradient1007&quot;)"></circle><circle r="25" cx="1570.5" cy="492.82" fill="url(&quot;#SvgjsRadialGradient1007&quot;)"></circle><circle r="5" cx="-108.03" cy="561.45" fill="#8b9ad9"></circle><circle r="5" cx="-50.4" cy="708.47" fill="#8b9ad9"></circle><circle r="5" cx="40.52" cy="529.09" fill="#8b9ad9"></circle><circle r="5" cx="48.59" cy="685.1" fill="#8b9ad9"></circle><circle r="5" cx="197.46" cy="506.59" fill="#8b9ad9"></circle><circle r="5" cx="201.89" cy="706.26" fill="#8b9ad9"></circle><circle r="5" cx="400.14" cy="503" fill="#8b9ad9"></circle><circle r="5" cx="487.97" cy="558.93" fill="#8b9ad9"></circle><circle r="5" cx="544.87" cy="658.19" fill="#8b9ad9"></circle><circle r="5" cx="689.79" cy="672.23" fill="#8b9ad9"></circle><circle r="5" cx="828.19" cy="553.44" fill="#8b9ad9"></circle><circle r="5" cx="788.54" cy="655.4" fill="#8b9ad9"></circle><circle r="5" cx="1007.82" cy="390.4" fill="#8b9ad9"></circle><circle r="5" cx="996.96" cy="507.03" fill="#8b9ad9"></circle><circle r="5" cx="996.32" cy="663.28" fill="#8b9ad9"></circle><circle r="5" cx="1113.31" cy="261.24" fill="#8b9ad9"></circle><circle r="5" cx="1132.67" cy="351.83" fill="#8b9ad9"></circle><circle r="5" cx="1139" cy="520.77" fill="#8b9ad9"></circle><circle r="5" cx="1132.25" cy="711.06" fill="#8b9ad9"></circle><circle r="5" cx="1306.2" cy="-96.94" fill="#8b9ad9"></circle><circle r="5" cx="1287.78" cy="46.44" fill="#8b9ad9"></circle><circle r="5" cx="1289.26" cy="215.64" fill="#8b9ad9"></circle><circle r="5" cx="1252.87" cy="360.62" fill="#8b9ad9"></circle><circle r="5" cx="1294.7" cy="550.2" fill="#8b9ad9"></circle><circle r="5" cx="1282.22" cy="712.41" fill="#8b9ad9"></circle><circle r="5" cx="1396.56" cy="-108.77" fill="#8b9ad9"></circle><circle r="5" cx="1423.7" cy="63.29" fill="#8b9ad9"></circle><circle r="5" cx="1414.32" cy="385.45" fill="#8b9ad9"></circle><circle r="5" cx="1444.29" cy="524.5" fill="#8b9ad9"></circle><circle r="5" cx="1411.33" cy="641.32" fill="#8b9ad9"></circle><circle r="5" cx="1606.41" cy="66.23" fill="#8b9ad9"></circle><circle r="5" cx="1542.42" cy="211.62" fill="#8b9ad9"></circle><circle r="5" cx="1542.11" cy="341.01" fill="#8b9ad9"></circle><circle r="5" cx="1549.01" cy="686.34" fill="#8b9ad9"></circle></g><defs><mask id="SvgjsMask1006"><rect width="1440" height="560" fill="#ffffff"></rect></mask><radialGradient id="SvgjsRadialGradient1007"><stop stop-color="#ffffff" offset="0.1"></stop><stop stop-color="#1735b3" offset="0.2"></stop><stop stop-color="rgba(23, 53, 179, 0)" offset="1"></stop></radialGradient></defs></svg>