<svg xmlns="http://www.w3.org/2000/svg" version="1.1" xmlns:xlink="http://www.w3.org/1999/xlink" xmlns:svgjs="http://svgjs.dev/svgjs" width="1440" height="560" preserveAspectRatio="none" viewBox="0 0 1440 560"><g mask="url(&quot;#SvgjsMask1021&quot;)" fill="none"><rect width="1440" height="560" x="0" y="0" fill="rgba(91, 108, 117, 1)"></rect><path d="M0,463.262C91.614,442.926,194.547,476.297,273.174,425.067C351.661,373.928,364.664,267.902,418.011,190.899C486.348,92.259,624.256,29.193,630.458,-90.646C636.595,-209.236,522.443,-295.675,447.98,-388.177C370.721,-484.153,307.773,-611.371,188.005,-640.287C68.677,-669.096,-50.334,-595.213,-156.856,-534.204C-245.944,-483.181,-315.739,-407.777,-370.065,-320.663C-418.332,-243.265,-418.877,-150.512,-449.676,-64.654C-490.397,48.863,-596.343,145.433,-580.136,264.939C-563.174,390.013,-483.514,525.692,-364.081,566.521C-242.248,608.17,-125.696,491.163,0,463.262" fill="#526169"></path><path d="M1440 917.0160000000001C1521.593 924.098 1603.402 962.274 1680.147 933.6759999999999 1763.029 902.7909999999999 1841.776 840.258 1870.491 756.5989999999999 1898.761 674.236 1844.54 589.684 1827.532 504.281 1811.6109999999999 424.337 1814.4470000000001 341.433 1773.745 270.808 1727.461 190.497 1670.9 102.613 1581.641 77.61599999999999 1492.511 52.65499999999997 1402.444 106.12099999999998 1317.575 143.05900000000003 1241.769 176.05200000000002 1164.1770000000001 212.19 1116.788 279.935 1071.5230000000001 344.64300000000003 1083.663 429.485 1063.757 505.904 1040.633 594.678 955.119 680.647 990.344 765.351 1025.342 849.51 1138.862 865.0609999999999 1225.228 894.191 1294.856 917.6759999999999 1366.7930000000001 910.662 1440 917.0160000000001" fill="#647781"></path></g><defs><mask id="SvgjsMask1021"><rect width="1440" height="560" fill="#ffffff"></rect></mask></defs></svg>